<svg width="511" height="272" viewBox="0 0 511 272" fill="none" xmlns="http://www.w3.org/2000/svg">
<path d="M362.335 238.589L363.601 237.33C366.421 238.863 368.563 239.861 370.033 240.329C370.981 239.384 371.088 238.313 370.36 237.113C364.214 232.139 360.42 228.204 358.972 225.308C360.41 223.392 360.969 221.875 360.643 220.754L351.686 212.312C347.424 206.072 344.149 202.58 341.872 201.835L330.135 190.866L318.465 178.856C309.879 166.551 299.119 154.366 286.183 142.297C286.277 142.265 286.375 142.24 286.472 142.209C284.786 140.431 283.357 138.575 282.113 136.681C282.468 136.229 282.857 135.78 283.234 135.331C283.52 135.3 283.803 135.256 284.092 135.227L287.151 131.035C288.529 129.65 289.986 128.281 291.554 126.936C291.045 127.005 290.527 127.04 290.018 127.103L296.334 118.447C296.817 117.951 297.081 117.587 297.125 117.364C297.273 116.78 301.691 112.666 310.378 105.015L322.962 89.1083L338.207 74.0431L333.753 73.7008C334.284 73.7071 334.815 73.7102 335.349 73.7228C336.354 73.7416 337.305 73.8578 338.207 74.0431C348.709 64.1346 354.057 58.0922 354.233 55.9189L354.289 55.5735L352.933 55.7682L350.788 56.7481L349.431 56.9428C353.975 50.6742 356.321 47.0783 356.469 46.155C361.604 42.5559 364.292 39.5849 364.531 37.2452C364.936 33.3635 370.476 26.3914 381.154 16.3197C390.635 10.2427 397.554 4.98539 401.916 0.538363C401.988 0.0798412 401.574 -0.0866083 400.672 0.0421545L399.994 0.139512C396.888 1.42714 394.498 2.89378 392.827 4.53629C372.618 16.5269 362.389 23.835 362.131 26.4574L359.418 26.8437C360.542 24.661 361.123 23.1158 361.158 22.2113C359.123 22.5003 357.298 23.2132 355.681 24.3438C350.53 30.2512 345.926 34.5066 341.865 37.1101C337.984 37.889 335.198 38.737 333.505 39.654L324.033 49.1008C315.852 55.1589 311.716 58.8993 311.625 60.3157L311.295 63.3997C311.242 64.2508 309.474 66.9768 306.003 71.5778L278.976 90.5341C271.322 96.4949 263.97 102.638 256.926 108.966C254.787 106.058 253.233 104.415 252.256 104.051C251.395 103.699 247.699 99.9087 241.163 92.676L210.75 67.5013C201.106 57.6557 194.47 52.1251 190.852 50.9192L190.318 50.7213L189.687 51.3494L189.8 52.681L189.168 53.3091C182.002 48.391 177.708 45.6744 176.289 45.1563C173.949 41.3405 170.931 38.8029 167.232 37.5404C161.104 35.4425 153.473 29.7832 144.337 20.5594C140.958 13.8009 137.129 8.45571 132.846 4.52059C132.139 4.26306 131.574 4.34158 131.15 4.76241L130.832 5.07647C130.776 6.93882 131.52 8.60959 133.059 10.0888C138.678 24.0172 143.564 31.6895 147.716 33.0997L146.45 34.359C143.63 32.8264 141.488 31.8277 140.019 31.3598C139.07 32.3051 138.96 33.376 139.692 34.5757C145.838 39.5504 149.632 43.4823 151.08 46.3811C149.641 48.2968 149.082 49.8137 149.409 50.9349L158.366 59.3767C162.627 65.617 165.903 69.1093 168.18 69.8536L179.916 80.8236L191.587 92.833C200.173 105.138 210.932 117.323 223.868 129.392C223.774 129.424 223.677 129.449 223.579 129.477C225.077 131.054 226.343 132.699 227.483 134.373L213.715 153.235C213.231 153.732 212.967 154.096 212.924 154.319C212.776 154.903 208.357 159.017 199.67 166.668L187.086 182.574L171.842 197.64L176.295 197.982C175.764 197.976 175.234 197.973 174.7 197.96C173.695 197.941 172.743 197.825 171.842 197.64C161.34 207.548 155.992 213.591 155.816 215.764L155.759 216.109L157.116 215.915L159.261 214.935L160.618 214.74C156.073 221.009 153.727 224.605 153.58 225.528C148.445 229.127 145.756 232.098 145.518 234.438C145.113 238.319 139.573 245.291 128.895 255.363C119.413 261.44 112.495 266.697 108.133 271.144C108.06 271.603 108.475 271.769 109.376 271.641L110.055 271.543C113.161 270.256 115.551 268.789 117.221 267.147C137.431 255.156 147.66 247.848 147.917 245.225L150.631 244.839C149.506 247.025 148.925 248.567 148.891 249.471C150.926 249.183 152.75 248.47 154.368 247.339C159.518 241.432 164.122 237.176 168.183 234.573C172.065 233.794 174.851 232.946 176.543 232.029L186.015 222.582C194.196 216.524 198.332 212.783 198.424 211.367L198.753 208.283C198.807 207.432 200.575 204.706 204.045 200.105L231.073 181.149C238.726 175.188 246.078 169.045 253.123 162.717C255.261 165.625 256.816 167.267 257.793 167.632C258.653 167.98 262.35 171.774 268.885 179.007L299.298 204.181C308.943 214.027 315.579 219.558 319.197 220.76L319.728 220.955L320.359 220.327L320.246 218.995L320.877 218.367C328.044 223.285 332.337 226.002 333.756 226.52C336.096 230.336 339.114 232.874 342.814 234.136C348.941 236.234 356.573 241.893 365.708 251.117C369.088 257.876 372.916 263.224 377.197 267.156C377.903 267.413 378.469 267.335 378.892 266.914L379.21 266.6C379.266 264.738 378.522 263.067 376.983 261.588C371.377 247.669 366.49 240 362.335 238.589Z" fill="#BE1622"/>
<path d="M17.8887 64.6528H50.4877V118.545L18.5513 150.481L17.8887 64.6528Z" fill="white"/>
<path d="M57.1426 98.5866V64.6528H144.302V98.5866H57.1426Z" fill="white"/>
<path d="M106.377 120.542V155.804H67.1232L51.1535 171.774V207.036H17.8887V157.802L56.1438 119.543L106.377 120.542Z" fill="white"/>
<path d="M467.94 67.9787L369.358 64.6528V114.377V114.657V207.033L404.287 172.104V142.017V121.183V98.5865H444.539L461.838 115.885V124.801V154.278V156.47L444.539 173.768L405.286 175.1L374.687 205.698C374.546 205.811 374.433 205.924 374.348 206.038H420.684H466.379L493.111 177.515V152.88V125.564V94.8399L467.94 67.9787Z" fill="white"/>
<path d="M408.612 103.907L409.277 136.509L441.88 103.907H408.612Z" fill="white"/>
<path d="M0 47.3169H4.34967V38.7966H11.2683V34.2899H0V47.3169Z" fill="white"/>
<path d="M0 217.859H4.34967V226.379H11.2683V230.886H0V217.859Z" fill="white"/>
<path d="M511 224.372H506.647V232.892H499.732V237.399H511V224.372Z" fill="white"/>
<path d="M511 53.8305H506.647V45.307H499.732V40.8035H511V53.8305Z" fill="white"/>
</svg>
