<svg id="Capa_1" data-name="Capa 1" xmlns="http://www.w3.org/2000/svg" viewBox="0 0 2178.71 704.89"><defs><style>.cls-1{fill:#be1622;}</style></defs><title>Foxtrot logo NEGRO full design2</title><path class="cls-1" d="M1178.44,595.43l3.22-3.25q11.1,5.58,16.86,7.22,3.62-3.66.67-8.14-24.35-18.35-30.22-29.2,5.44-7.38,4.09-11.6l-23.72-20.83q-17.13-23.31-26.07-25.94l-31.07-27.07-31-29.7q-34.47-45.93-85.85-90.59l.74-.23a101,101,0,0,1-11.62-13.73c.9-1.16,1.89-2.31,2.83-3.47.74-.1,1.48-.23,2.22-.31l7.7-10.76c3.51-3.58,7.21-7.12,11.2-10.59-1.31.2-2.66.31-4,.51l15.9-22.22a7.44,7.44,0,0,0,2-2.77q.52-2.24,33.7-31.93L1067.83,220,1106.55,181l-11.58-.61c1.38,0,2.76,0,4.14,0a42.39,42.39,0,0,1,7.44.65q40-38.4,40.56-46.67l.13-.87-3.51.56-5.51,2.6-3.51.56q17.16-24.14,17.65-27.64,19.7-14.07,20.42-23,1.24-14.73,42-53.78,36.39-23.8,53-41c.16-1.16-.92-1.56-3.26-1.19l-1.75.29q-12,5.13-18.36,11.5-77.65,47.1-78.42,57.06l-7,1.13c2.79-5.58,4.22-9.51,4.26-11.8a32.89,32.89,0,0,0-14.1,5.68q-19.55,22.82-35.13,33-15,3.27-21.56,6.88l-24.05,24.39q-31.33,23.63-31.56,29l-.69,7.8q-.13,3.24-13.27,20.95l-69.08,49.37q-29.29,23.24-56.18,47.78-8.56-10.85-12.4-12.16-3.37-1.26-29.43-28.13L775.38,171.5Q737,135,722.8,130.71l-1.39-.47-1.61,1.63.37,3.36-1.6,1.63q-28.32-18-33.88-19.89-9.44-14.28-23.94-18.75-24-7.44-60.38-41.65-13.73-25.33-30.72-39.89c-1.85-.62-3.31-.38-4.38.7l-.81.81q-.06,7.06,6.07,12.54,23,52.33,39.33,57.33l-3.21,3.25q-11.11-5.57-16.86-7.22-3.62,3.66-.67,8.15,24.35,18.35,30.22,29.2-5.45,7.37-4.09,11.6L639,153.87Q656.1,177.17,665,179.8l31.08,27.07,31,29.7q34.47,45.93,85.85,90.59l-.75.24a97.6,97.6,0,0,1,10.41,12.15L787.92,388a7.13,7.13,0,0,0-2,2.78q-.52,2.22-33.7,31.93l-31.75,40.88-38.72,38.9,11.58.62-4.14,0a41.29,41.29,0,0,1-7.44-.65q-40.05,38.41-40.56,46.67l-.13.88,3.51-.57,5.51-2.59,3.51-.57q-17.16,24.13-17.66,27.64-19.68,14.07-20.41,23-1.26,14.75-42,53.78-36.39,23.8-53,41-.26,1.76,3.26,1.19l1.75-.28q12-5.13,18.36-11.5,77.64-47.12,78.42-57.07l7-1.13c-2.79,5.58-4.22,9.52-4.26,11.81a33.08,33.08,0,0,0,14.1-5.69q19.54-22.82,35.13-33,15-3.27,21.56-6.88L720,564.7q31.32-23.64,31.56-29l.69-7.81q.13-3.23,13.27-20.95l69.08-49.37q29.28-23.22,56.18-47.78,8.57,10.86,12.4,12.17,3.38,1.24,29.43,28.13L1012.93,512q38.39,36.53,52.58,40.8l1.39.46,1.6-1.62-.36-3.37,1.6-1.62q28.32,18,33.88,19.89,9.44,14.26,23.94,18.75,24,7.44,60.37,41.64,13.72,25.33,30.73,39.9c1.85.61,3.31.38,4.38-.71l.81-.81q.06-7.06-6.07-12.54Q1194.74,600.44,1178.44,595.43Z" transform="translate(-121.24 10.33)"/><path d="M247.44,556.08H385.91v27.7H275.13v83.09H385.91v27.69H247.44Z" transform="translate(-121.24 10.33)"/><path d="M662.87,556.08V694.56H524.4V556.08Zm-110.78,27.7v83.09h83.09V583.78Z" transform="translate(-121.24 10.33)"/><path d="M801.35,694.56V556.08H939.82V694.56H912.13V583.78H884.44V694.56h-27.7V583.78H829V694.56Z" transform="translate(-121.24 10.33)"/><path d="M1078.31,694.56V556.08h138.47V694.56h-27.69V583.78h-27.7V694.56H1133.7V583.78H1106V694.56Z" transform="translate(-121.24 10.33)"/><path d="M1424.5,694.56V666.87h26.83l-26.83-69.24-37.65,96.93h-31.59l55.39-138.48h27.7l55.39,138.48Z" transform="translate(-121.24 10.33)"/><path d="M1632.22,694.56V556.08h27.69L1743,654.31V556.08h27.69V694.56H1743l-83.09-95.2v95.2Z" transform="translate(-121.24 10.33)"/><path d="M1909.17,694.56V556.08H2020l27.7,27.7v83.09L2020,694.56Zm27.69-27.69h69.24L2020,653V598.93l-13.85-15.15h-69.24Z" transform="translate(-121.24 10.33)"/><polygon points="0 195.16 70.81 195.16 70.81 312.21 1.45 381.58 0 195.16"/><polygon points="85.26 268.86 85.26 195.16 274.56 195.16 274.56 268.86 85.26 268.86 85.26 268.86"/><polygon points="192.19 316.55 192.19 393.14 106.94 393.14 72.25 427.82 72.25 704.89 0 704.89 0 397.47 83.09 314.38 192.19 316.55"/><polygon points="300.58 195.16 300.58 504.41 376.44 428.54 376.44 268.86 463.87 268.86 501.44 306.43 501.44 435.05 378.61 435.05 311.41 502.24 530.99 502.24 569.36 467.14 569.36 260.72 514.69 202.39 300.58 195.16"/><polygon points="385.83 280.42 458.09 280.42 387.28 351.23 385.83 280.42"/><polygon points="1611.48 195.16 1611.48 504.41 1687.35 428.54 1687.35 268.86 1774.78 268.86 1812.35 306.43 1812.35 435.05 1689.52 435.05 1622.32 502.24 1880.27 502.24 1880.27 280.42 1802.23 202.39 1611.48 195.16"/><polygon points="1696.74 280.42 1769 280.42 1698.19 351.23 1696.74 280.42"/><polygon points="1180.39 197.82 1022.28 197.82 960.98 270.6 1111.48 270.6 1111.48 279.7 1055.08 336.11 1103.75 384.78 1180.39 308.13 1180.39 197.82"/><polygon points="1111.48 504.41 1182.55 504.41 1182.55 327.35 1111.48 398.42 1111.48 504.41"/><rect x="1196.09" y="197.82" width="84.61" height="72.78"/><polygon points="2078.41 197.82 1910.33 197.82 1910.33 270.6 2009.49 270.6 2009.49 279.7 1953.09 336.11 2001.76 384.78 2078.41 308.13 2078.41 197.82"/><polygon points="2009.49 704.89 2080.57 704.89 2080.57 327.35 2009.49 398.42 2009.49 704.89"/><rect x="2094.1" y="197.82" width="84.61" height="72.78"/><path class="cls-1" d="M626.89,590.18a31.67,31.67,0,0,1-7.41-2.36c-2.34,3-3.75,5.77-4,8.19q-1.24,14.75-42,53.78-36.39,23.81-53,41-.26,1.76,3.26,1.19l1.75-.28q12-5.13,18.36-11.5,77.64-47.12,78.42-57.07l7-1.13c-2.79,5.58-4.22,9.52-4.26,11.81a34.76,34.76,0,0,0,5.68-1.46,26.65,26.65,0,0,1,0-5.72C632.1,614.27,629.52,602.45,626.89,590.18Z" transform="translate(-121.24 10.33)"/><path class="cls-1" d="M1264.47-10.2l-1.75.29q-12,5.13-18.36,11.5-77.64,47.1-78.42,57.06l-7,1.13c2.79-5.58,4.22-9.51,4.26-11.8a32.89,32.89,0,0,0-14.1,5.68q-19.55,22.82-35.13,33-15,3.27-21.56,6.88L1068.34,118q-31.33,23.62-31.57,29l-.68,7.8q-.13,3.24-13.27,20.95L953.74,225.1q-29.29,23.22-56.18,47.77Q889,262,885.16,260.71q-3.37-1.26-29.43-28.13l-80.35-61.93Q737,134.14,722.8,129.86l-1.39-.47L719.8,131l.37,3.36-1.6,1.63q-28.32-18-33.88-19.89-9.44-14.28-23.94-18.75-24-7.44-60.38-41.65-13.73-25.33-30.72-39.89-2.77-.91-4.38.7l-.81.81q-.06,7.07,6.07,12.54,23,52.34,39.33,57.33l-3.21,3.25q-11.11-5.56-16.86-7.22-3.62,3.66-.67,8.15,24.35,18.35,30.22,29.2-5.45,7.36-4.09,11.6L639,153Q656.1,176.32,665,179L696.11,206l31,29.7q34.47,45.93,85.85,90.59l-.75.24a97.6,97.6,0,0,1,10.41,12.15l-34.66,48.41a7.13,7.13,0,0,0-2,2.78q-.54,2.22-33.7,31.93L720.48,462.7l-38.72,38.9,11.58.62-4.14,0a41.29,41.29,0,0,1-7.44-.65c-11.27,10.81-20.09,19.75-26.62,26.95a28.45,28.45,0,0,1,5.81,5.51c13.67,1.83,26.83,11.58,29.11,25.61,1.57,9.62,3.74,19.15,5.58,28.7.08,0,.2-.09.28-.13L720,563.85q31.32-23.64,31.56-29l.69-7.81q.13-3.22,13.27-20.95l69.08-49.37q29.28-23.22,56.18-47.78,8.57,10.86,12.4,12.17,3.38,1.25,29.43,28.13l80.35,61.92q38.39,36.52,52.58,40.8l1.39.46,1.6-1.62-.36-3.37,1.6-1.62,4.69,3c.83-.38,1.68-.71,2.55-1a33.82,33.82,0,0,1,8.3-3.19l9.07-.9a33.65,33.65,0,0,1,12.4,2.85,30.48,30.48,0,0,1,12.45-6c1.43-11.42,9.33-20.47,19.41-25.17-6.29-7.12-11.42-11.32-15.34-12.48l-31.07-27.07-31-29.7q-34.47-45.92-85.85-90.59l.74-.23a101,101,0,0,1-11.62-13.73c.9-1.16,1.89-2.31,2.83-3.47.74-.1,1.48-.23,2.22-.31l7.7-10.76c3.51-3.58,7.21-7.12,11.2-10.59-1.31.2-2.66.31-4,.51l15.9-22.22a7.44,7.44,0,0,0,2-2.77q.52-2.24,33.7-31.93l31.75-40.88,38.72-38.91-11.58-.61,4.14,0a42.39,42.39,0,0,1,7.44.65q40-38.4,40.56-46.67l.13-.87-3.51.56-5.51,2.6-3.51.56q17.16-24.14,17.65-27.64,19.7-14.06,20.42-23Q1174,71,1214.74,32q36.39-23.8,53-41C1267.89-10.17,1266.81-10.57,1264.47-10.2Z" transform="translate(-121.24 10.33)"/><path class="cls-1" d="M1186,599.2a71.17,71.17,0,0,1-2.85,10.74,46.47,46.47,0,0,1,5.41,17.29q13.47,24.49,30.07,38.74c1.85.61,3.31.38,4.38-.71l.81-.81q.06-7.07-6.07-12.54Q1199.87,611.23,1186,599.2Z" transform="translate(-121.24 10.33)"/><path class="cls-1" d="M1199.19,591.33c-4.26-3.21-6.69-4.69-10.1-7.55-.07,4.21-1.72,6.85-2.23,11a82.87,82.87,0,0,0,11.66,4.69Q1202.14,595.81,1199.19,591.33Z" transform="translate(-121.24 10.33)"/><path d="M1549.64,369.32h-27.81v-.12H1505V189.43h-72.89V494.08H1505V438H1617Z" transform="translate(-121.24 10.33)"/><path d="M1671.29,389.87,1701,360.2V270.73l-81.3-81.31H1511.51v70.84h91.8l34.83,34.84v38.65l-35.56,35.56h-46.69L1624.57,438,1637,450.38v43.69s65.65-.93,65.65,0V421.18Z" transform="translate(-121.24 10.33)"/></svg>