<svg width="338" height="71" viewBox="0 0 338 71" fill="none" xmlns="http://www.w3.org/2000/svg">
<g clip-path="url(#clip0_409_743)">
<path d="M334.811 0.325195H3.18868C1.42762 0.325195 0 1.22063 0 2.3252V68.3252C0 69.4298 1.42762 70.3252 3.18868 70.3252H334.811C336.572 70.3252 338 69.4298 338 68.3252V2.3252C338 1.22063 336.572 0.325195 334.811 0.325195Z" fill="#BE1622"/>
<path d="M336.406 0.605469V63.3255C336.406 63.8559 336.07 64.3646 335.472 64.7397C334.874 65.1148 334.063 65.3255 333.217 65.3255H4.78302C3.93733 65.3255 3.12628 65.1148 2.52828 64.7397C1.93029 64.3646 1.59434 63.8559 1.59434 63.3255V0.605469C1.11241 0.779979 0.711682 1.03056 0.431985 1.3323C0.152288 1.63404 0.00335886 1.97644 0 2.32547L0 68.3255C0 68.8559 0.335949 69.3646 0.933943 69.7397C1.53194 70.1148 2.34299 70.3255 3.18868 70.3255H334.811C335.657 70.3255 336.468 70.1148 337.066 69.7397C337.664 69.3646 338 68.8559 338 68.3255V2.32547C337.997 1.97644 337.848 1.63404 337.568 1.3323C337.288 1.03056 336.888 0.779979 336.406 0.605469V0.605469Z" fill="#841723"/>
<path d="M17.5378 66.6752L32.413 60.2552V62.5952C32.413 62.5952 59.6443 51.2452 58.4645 52.1852C57.2847 53.1252 32.4609 65.9252 32.4609 65.9252L17.5378 66.6752Z" fill="#841723"/>
<path d="M192.198 0.0151367L201.206 11.3251L201.19 7.56514L205.558 8.10514L198.878 0.0551367L192.198 0.0151367Z" fill="#841723"/>
<path d="M308.202 66.6751L312.108 62.4051L291.031 49.9751L312.108 60.2551V56.8451L323.396 65.0851L308.202 66.6751Z" fill="#841723"/>
<path d="M13.8547 0.0454102L15.3853 3.96541L17.0912 0.0454102H13.8547Z" fill="#841723"/>
<path d="M20.1206 0.0454102L21.1091 2.59541L22.2251 0.0454102H20.1206Z" fill="#841723"/>
<path d="M241.861 65.5853L239.677 59.1553L238.625 65.7153L241.861 65.5853Z" fill="#841723"/>
<path d="M235.596 65.8353L234.177 61.6353L233.491 65.9152L235.596 65.8353Z" fill="#841723"/>
<path d="M256.832 -0.0249414L258.57 6.46506L260.069 -0.0649414L256.832 -0.0249414Z" fill="#841723"/>
<path d="M263.098 -0.104766L264.23 4.12523L265.202 -0.134766L263.098 -0.104766Z" fill="#841723"/>
<path d="M143.586 65.0853L142.072 61.1753L140.35 65.0853H143.586Z" fill="#841723"/>
<path d="M137.32 65.0852L136.332 62.5352L135.216 65.0852H137.32Z" fill="#841723"/>
<path d="M124.917 0.0454102L121.664 3.96541L130.21 0.0454102H124.917Z" fill="#841723"/>
<path d="M308.776 18.7954L312.252 22.1854C312.343 22.296 312.474 22.3918 312.634 22.4654L327.477 30.5754L314.085 20.9654L308.776 18.7954Z" fill="#841723"/>
<path d="M303.754 19.5552L307.213 23.4952L322.455 31.3352L308.808 22.4752L303.754 19.5552Z" fill="#841723"/>
<path d="M306.56 25.4453L310.227 29.0453L325.261 37.2353L311.757 28.0853L306.56 25.4453Z" fill="#841723"/>
<path d="M203.278 -0.0747656L206.355 4.68523L200.696 -0.134766L203.278 -0.0747656Z" fill="#841723"/>
<path d="M334.811 1.0752C335.34 1.0752 335.847 1.20689 336.221 1.44131C336.594 1.67573 336.804 1.99367 336.804 2.3252V68.3252C336.804 68.6567 336.594 68.9747 336.221 69.2091C335.847 69.4435 335.34 69.5752 334.811 69.5752H3.18868C2.66012 69.5752 2.15321 69.4435 1.77947 69.2091C1.40572 68.9747 1.19575 68.6567 1.19575 68.3252V2.3252C1.19575 1.99367 1.40572 1.67573 1.77947 1.44131C2.15321 1.20689 2.66012 1.0752 3.18868 1.0752H334.811ZM334.811 0.325195H3.18868C2.34299 0.325195 1.53194 0.535909 0.933943 0.910982C0.335949 1.28605 0 1.79476 0 2.3252L0 68.3252C0 68.8556 0.335949 69.3643 0.933943 69.7394C1.53194 70.1145 2.34299 70.3252 3.18868 70.3252H334.811C335.657 70.3252 336.468 70.1145 337.066 69.7394C337.664 69.3643 338 68.8556 338 68.3252V2.3252C338 1.79476 337.664 1.28605 337.066 0.910982C336.468 0.535909 335.657 0.325195 334.811 0.325195V0.325195Z" fill="black"/>
</g>
<defs>
<clipPath id="clip0_409_743">
<rect width="338" height="70" fill="white" transform="translate(0 0.325195)"/>
</clipPath>
</defs>
</svg>
