<svg width="212" height="70" viewBox="0 0 212 70" fill="none" xmlns="http://www.w3.org/2000/svg">
<path d="M210 0H2C0.89543 0 0 0.89543 0 2V68C0 69.1046 0.89543 70 2 70H210C211.105 70 212 69.1046 212 68V2C212 0.89543 211.105 0 210 0Z" fill="#BE1622"/>
<path d="M211 0.279968V63C211 63.5304 210.789 64.0391 210.414 64.4142C210.039 64.7893 209.53 65 209 65H3C2.46957 65 1.96086 64.7893 1.58579 64.4142C1.21071 64.0391 1 63.5304 1 63V0.279968C0.697724 0.454479 0.446381 0.705057 0.270949 1.0068C0.0955177 1.30854 0.00210674 1.65094 0 1.99997L0 68C0 68.5304 0.210714 69.0391 0.585786 69.4142C0.960859 69.7893 1.46957 70 2 70H210C210.53 70 211.039 69.7893 211.414 69.4142C211.789 69.0391 212 68.5304 212 68V1.99997C211.998 1.65094 211.904 1.30854 211.729 1.0068C211.554 0.705057 211.302 0.454479 211 0.279968Z" fill="#841723"/>
<path d="M11 66.3499L20.33 59.9299V62.2699C20.33 62.2699 37.41 50.9199 36.67 51.8599C35.93 52.7999 20.36 65.5999 20.36 65.5999L11 66.3499Z" fill="#841723"/>
<path d="M120.55 -0.309998L126.2 11L126.19 7.24L128.93 7.78L124.74 -0.269998L120.55 -0.309998Z" fill="#841723"/>
<path d="M193.31 66.35L195.76 62.08L182.54 49.65L195.76 59.93V56.52L202.84 64.76L193.31 66.35Z" fill="#841723"/>
<path d="M8.69 -0.280029L9.65 3.63997L10.72 -0.280029H8.69Z" fill="#841723"/>
<path d="M12.62 -0.280029L13.24 2.26997L13.94 -0.280029H12.62Z" fill="#841723"/>
<path d="M151.7 65.26L150.33 58.83L149.67 65.39L151.7 65.26Z" fill="#841723"/>
<path d="M147.77 65.51L146.88 61.31L146.45 65.59L147.77 65.51Z" fill="#841723"/>
<path d="M161.09 -0.350015L162.18 6.13999L163.12 -0.390015L161.09 -0.350015Z" fill="#841723"/>
<path d="M165.02 -0.430022L165.73 3.79998L166.34 -0.460022L165.02 -0.430022Z" fill="#841723"/>
<path d="M90.06 64.76L89.11 60.85L88.03 64.76H90.06Z" fill="#841723"/>
<path d="M86.13 64.76L85.51 62.21L84.81 64.76H86.13Z" fill="#841723"/>
<path d="M78.35 -0.280029L76.31 3.63997L81.67 -0.280029H78.35Z" fill="#841723"/>
<path d="M193.67 18.47L195.85 21.86C195.907 21.9705 195.99 22.0663 196.09 22.14L205.4 30.25L197 20.64L193.67 18.47Z" fill="#841723"/>
<path d="M190.52 19.23L192.69 23.17L202.25 31.01L193.69 22.15L190.52 19.23Z" fill="#841723"/>
<path d="M192.28 25.12L194.58 28.72L204.01 36.91L195.54 27.76L192.28 25.12Z" fill="#841723"/>
<path d="M127.5 -0.400022L129.43 4.35998L125.88 -0.460022L127.5 -0.400022Z" fill="#841723"/>
<path d="M210 0.75C210.332 0.75 210.649 0.881696 210.884 1.11612C211.118 1.35054 211.25 1.66848 211.25 2V68C211.25 68.3315 211.118 68.6495 210.884 68.8839C210.649 69.1183 210.332 69.25 210 69.25H2C1.66848 69.25 1.35054 69.1183 1.11612 68.8839C0.881696 68.6495 0.75 68.3315 0.75 68V2C0.75 1.66848 0.881696 1.35054 1.11612 1.11612C1.35054 0.881696 1.66848 0.75 2 0.75H210ZM210 0H2C1.46957 0 0.960859 0.210714 0.585786 0.585786C0.210714 0.960859 0 1.46957 0 2L0 68C0 68.5304 0.210714 69.0391 0.585786 69.4142C0.960859 69.7893 1.46957 70 2 70H210C210.53 70 211.039 69.7893 211.414 69.4142C211.789 69.0391 212 68.5304 212 68V2C212 1.46957 211.789 0.960859 211.414 0.585786C211.039 0.210714 210.53 0 210 0V0Z" fill="black"/>
</svg>
