<svg width="232" height="72" viewBox="0 0 232 72" fill="none" xmlns="http://www.w3.org/2000/svg">
<path opacity="0.16" d="M228.748 1H3.25245C2.05498 1 1.08423 1.89543 1.08423 3V69C1.08423 70.1046 2.05498 71 3.25245 71H228.748C229.945 71 230.916 70.1046 230.916 69V3C230.916 1.89543 229.945 1 228.748 1Z" fill="#BE1622"/>
<path opacity="0.2" d="M229.832 1.28003V64C229.832 64.5305 229.603 65.0392 229.197 65.4142C228.79 65.7893 228.239 66 227.664 66H219.424L220.975 65.76L213.299 57.52V60.93L198.978 50.65L213.31 63.08L211.489 66H165.479L164.059 59.83L163.387 66H161.164L160.319 62.31L159.917 66H23.9482C27.2872 63.46 40.1123 53.68 40.8386 52.86C41.565 52.04 23.1134 63.27 23.1134 63.27V60.93L15.1777 66H4.33657C3.76152 66 3.21002 65.7893 2.8034 65.4142C2.39678 65.0392 2.16834 64.5305 2.16834 64V1.28003C1.84064 1.45454 1.56816 1.70512 1.37797 2.00686C1.18778 2.3086 1.08651 2.651 1.08423 3.00003V69C1.08423 69.5305 1.31267 70.0392 1.71929 70.4142C2.12591 70.7893 2.6774 71 3.25245 71H228.748C229.323 71 229.874 70.7893 230.281 70.4142C230.688 70.0392 230.916 69.5305 230.916 69V3.00003C230.914 2.651 230.812 2.3086 230.622 2.00686C230.432 1.70512 230.16 1.45454 229.832 1.28003V1.28003Z" fill="#841723"/>
<path opacity="0.2" d="M137.888 8.24006L140.859 8.78006L136.316 0.730063L131.774 0.690063L137.899 12.0001L137.888 8.24006Z" fill="#841723"/>
<path opacity="0.2" d="M12.7059 0.720093H10.5051L11.5459 4.64009L12.7059 0.720093Z" fill="#841723"/>
<path opacity="0.2" d="M16.1967 0.720093H14.7656L15.4378 3.27009L16.1967 0.720093Z" fill="#841723"/>
<path opacity="0.2" d="M177.925 0.609985L175.724 0.649985L176.906 7.13999L177.925 0.609985Z" fill="#841723"/>
<path opacity="0.2" d="M181.415 0.540039L179.984 0.570039L180.754 4.80004L181.415 0.540039Z" fill="#841723"/>
<path opacity="0.2" d="M97.6894 61.8501L96.5186 65.7601H98.7193L97.6894 61.8501Z" fill="#841723"/>
<path opacity="0.2" d="M93.7867 63.2101L93.0278 65.7601H94.4589L93.7867 63.2101Z" fill="#841723"/>
<path opacity="0.2" d="M86.0243 0.720093L83.8127 4.64009L89.6236 0.720093H86.0243Z" fill="#841723"/>
<path opacity="0.2" d="M213.668 23.1401L223.761 31.2501L214.654 21.6401L211.088 19.4701L213.451 22.8601C213.501 22.9667 213.575 23.0622 213.668 23.1401V23.1401Z" fill="#841723"/>
<path opacity="0.2" d="M220.346 32.01L211.066 23.15L207.629 20.23L209.982 24.17L220.346 32.01Z" fill="#841723"/>
<path opacity="0.2" d="M209.537 26.12L212.031 29.72L222.254 37.91L213.072 28.76L209.537 26.12Z" fill="#841723"/>
<path opacity="0.2" d="M139.309 0.600039L137.552 0.540039L141.401 5.36004L139.309 0.600039Z" fill="#841723"/>
<path d="M228.748 1H3.25245C2.05498 1 1.08423 1.89543 1.08423 3V69C1.08423 70.1046 2.05498 71 3.25245 71H228.748C229.945 71 230.916 70.1046 230.916 69V3C230.916 1.89543 229.945 1 228.748 1Z" stroke="#8C1C21" stroke-width="1.5" stroke-miterlimit="10" stroke-linecap="round"/>
</svg>
